<svg xmlns="http://www.w3.org/2000/svg" xmlns:xlink="http://www.w3.org/1999/xlink" x="0px" y="0px"
	 viewBox="0 0 50 50" style="enable-background:new 0 0 50 50;" xml:space="preserve">
<style type="text/css">
	.st0{fill:none;stroke:currentcolor;stroke-linecap:round;stroke-linejoin:round;}
</style>
<g id="Group_25146" transform="translate(-1347.803 -563.797)">
	<rect id="Rectangle_8919" x="1352.6" y="579" class="st0" width="40.4" height="33.8"/>
	<path id="Path_54514" class="st0" d="M1389.5,612.8h-33.3v-29.7c0-0.3,0.3-0.6,0.6-0.6h32.2c0.3,0,0.6,0.3,0.6,0.6V612.8z"/>
	<path id="Path_54515" class="st0" d="M1372.2,565l-20.7,13c-0.3,0.2-0.3,0.5-0.2,0.8c0.1,0.2,0.3,0.3,0.5,0.3h42
		c0.3,0,0.6-0.3,0.6-0.6c0-0.2-0.1-0.4-0.3-0.5l-20.7-13C1373,564.7,1372.6,564.7,1372.2,565z"/>
	<path id="Path_54516" class="st0" d="M1385.8,575.8l-12.6-7.9c-0.3-0.2-0.6-0.2-0.9,0l-12.6,7.9"/>
	<line id="Line_320" class="st0" x1="1362.2" y1="586.8" x2="1389.5" y2="586.8"/>
	<line id="Line_321" class="st0" x1="1356.1" y1="586.8" x2="1359.8" y2="586.8"/>
	<line id="Line_322" class="st0" x1="1382.9" y1="591.1" x2="1389.5" y2="591.1"/>
	<line id="Line_323" class="st0" x1="1356.1" y1="591.1" x2="1380.5" y2="591.1"/>
	<line id="Line_324" class="st0" x1="1356.1" y1="595.5" x2="1389.5" y2="595.5"/>
	<line id="Line_325" class="st0" x1="1384.7" y1="599.8" x2="1389.5" y2="599.8"/>
	<line id="Line_326" class="st0" x1="1356.1" y1="599.8" x2="1382.3" y2="599.8"/>
	<line id="Line_327" class="st0" x1="1356.1" y1="604.1" x2="1389.5" y2="604.1"/>
	<line id="Line_328" class="st0" x1="1362.2" y1="608.4" x2="1389.5" y2="608.4"/>
	<line id="Line_329" class="st0" x1="1356.1" y1="608.4" x2="1359.8" y2="608.4"/>
</g>
</svg>
