<svg xmlns="http://www.w3.org/2000/svg" xmlns:xlink="http://www.w3.org/1999/xlink" x="0px" y="0px"
	 viewBox="0 0 50 50" style="enable-background:new 0 0 50 50;" xml:space="preserve">
<style type="text/css">
	.st0{fill:none;stroke:currentcolor;stroke-linecap:round;stroke-linejoin:round;}
</style>
<g id="Group_25151" transform="translate(-1306.454 -779.454)">
	<line id="Line_345" class="st0" x1="1335.2" y1="812.7" x2="1335.2" y2="825.6"/>
	<line id="Line_346" class="st0" x1="1348" y1="815.7" x2="1327.4" y2="815.7"/>
	<path id="Path_54550" class="st0" d="M1335.2,783.3V803h12.8"/>
	<line id="Line_347" class="st0" x1="1348" y1="793.2" x2="1322.4" y2="793.2"/>
	<path id="Path_54551" class="st0" d="M1319.6,803v-20.9c0-0.9,0.8-1.7,1.7-1.7h27.9c0.9,0,1.7,0.8,1.7,1.7v44.6
		c0,0.9-0.8,1.7-1.7,1.7h-23"/>
	<path id="Path_54552" class="st0" d="M1322.4,803v-19.1c0-0.3,0.3-0.6,0.6-0.6h24.4c0.3,0,0.6,0.3,0.6,0.6V825
		c0,0.3-0.3,0.6-0.6,0.6h-20"/>
	<path id="Rectangle_8931" class="st0" d="M1318.2,821.9h6c1.8,0,3.3,1.5,3.3,3.3l0,0c0,1.8-1.5,3.3-3.3,3.3h-6
		c-1.8,0-3.3-1.5-3.3-3.3l0,0C1314.9,823.3,1316.3,821.9,1318.2,821.9z"/>
	<path id="Path_54553" class="st0" d="M1331.4,812.7h-15.9c-1.9,0-3.4-1.5-3.4-3.4v-2.9c0-1.9,1.5-3.4,3.4-3.4h15.9
		c1.3,0,2.3,1,2.3,2.3v5.1C1333.7,811.6,1332.6,812.7,1331.4,812.7C1331.4,812.7,1331.4,812.7,1331.4,812.7z"/>
	<path id="Path_54554" class="st0" d="M1336.1,810.3h-2.4v-5h2.4c0.6,0,1.1,0.5,1.1,1.1v0v2.8
		C1337.2,809.8,1336.7,810.3,1336.1,810.3L1336.1,810.3z"/>
	<path id="Path_54555" class="st0" d="M1341.9,808.7h-4.8v-1.8h4.8c0.5,0,0.9,0.4,0.9,0.9C1342.9,808.3,1342.5,808.7,1341.9,808.7
		C1342,808.7,1342,808.7,1341.9,808.7z"/>
	<path id="Path_54556" class="st0" d="M1322.4,821.9h-5.9l0.8-2.8c0.3-1.2,0.3-2.4,0-3.6l-0.8-2.8h5.9V821.9z"/>
	<path id="Path_54557" class="st0" d="M1322.4,815.7h1.2c1.3,0,2.3-1,2.3-2.3v-0.8h-3.5V815.7z"/>
	<line id="Line_348" class="st0" x1="1313.9" y1="807.8" x2="1316.8" y2="807.8"/>
	<line id="Line_349" class="st0" x1="1313.9" y1="805.9" x2="1316.8" y2="805.9"/>
	<line id="Line_350" class="st0" x1="1313.9" y1="809.8" x2="1316.8" y2="809.8"/>
	<line id="Line_351" class="st0" x1="1331.4" y1="810.3" x2="1331.4" y2="812.7"/>
	<line id="Line_352" class="st0" x1="1331.4" y1="803" x2="1331.4" y2="808.5"/>
	<line id="Line_353" class="st0" x1="1317.1" y1="824" x2="1314.9" y2="824"/>
	<line id="Line_354" class="st0" x1="1327.4" y1="824" x2="1319" y2="824"/>
</g>
</svg>
