<svg xmlns="http://www.w3.org/2000/svg" xmlns:xlink="http://www.w3.org/1999/xlink" x="0px" y="0px"
	 viewBox="0 0 50 50" style="enable-background:new 0 0 50 50;" xml:space="preserve">
<style type="text/css">
	.st0{fill:none;stroke:currentcolor;stroke-linecap:round;stroke-linejoin:round;}
</style>
<g id="Group_25150" transform="translate(-1272.454 -891.455)">
	<path id="Path_54544" class="st0" d="M1300.3,932.2h-5.7l-1.2-6.5c-0.1-0.6,0.3-1.3,1-1.4c0.1,0,0.1,0,0.2,0h5.7
		c0.7,0,1.2,0.5,1.2,1.2c0,0.1,0,0.1,0,0.2L1300.3,932.2z"/>
	<path id="Path_54545" class="st0" d="M1297.1,924.1c-1.1,0.7-4.9-1.6-6.2-3c-1.4-1.4-1.8-3.3-0.8-4.3c0.9-0.9,2.9-0.6,4.3,0.8
		c0.4,0.4,0.7,0.8,1,1.2"/>
	<path id="Path_54546" class="st0" d="M1299.5,918.9c0.3-0.4,0.7-0.9,1-1.2c1.4-1.4,3.3-1.8,4.3-0.8c0.9,0.9,0.6,2.9-0.8,4.3
		c-1.4,1.4-5.1,3.7-6.2,3"/>
	<path id="Path_54547" class="st0" d="M1299.9,915.3c0,2.7-1.1,8.9-2.4,8.9c-1.3,0-2.4-6.2-2.4-8.9c0-2.7,1.1-4.9,2.4-4.9
		C1298.8,910.4,1299.9,912.6,1299.9,915.3z"/>
	<path id="Path_54548" class="st0" d="M1273.5,934.9v-40c0-1,0.8-1.9,1.9-1.9h44.2c1,0,1.9,0.8,1.9,1.9v40"/>
	<rect id="Rectangle_8929" x="1277" y="896.6" class="st0" width="41" height="38.4"/>
	<path id="Path_54549" class="st0" d="M1294.2,930.2h-9.3v-25.7h25.1v25.7h-9.3"/>
	<rect id="Rectangle_8930" x="1273.5" y="934.9" class="st0" width="48" height="4.9"/>
	<line id="Line_341" class="st0" x1="1277" y1="896.6" x2="1284.9" y2="904.5"/>
	<line id="Line_342" class="st0" x1="1317.9" y1="896.6" x2="1310" y2="904.5"/>
	<line id="Line_343" class="st0" x1="1317.9" y1="934.9" x2="1310" y2="930.2"/>
	<line id="Line_344" class="st0" x1="1284.9" y1="930.2" x2="1277" y2="934.9"/>
</g>
</svg>
