<?xml version="1.0" encoding="utf-8"?>
<!-- Generator: Adobe Illustrator 22.0.0, SVG Export Plug-In . SVG Version: 6.00 Build 0)  -->
<svg version="1.1" id="Layer_1" xmlns="http://www.w3.org/2000/svg" xmlns:xlink="http://www.w3.org/1999/xlink" x="0px" y="0px"
	 viewBox="0 0 50 50" style="enable-background:new 0 0 50 50;" xml:space="preserve">
<style type="text/css">
	.st0{fill:none;stroke:#262626;stroke-linecap:round;stroke-linejoin:round;}
</style>
<g id="Group_25147" transform="translate(-1282.454 -675.455)">
	<path id="Path_54517" class="st0" d="M1322.9,698.8h-4.5v-1.5c0-0.1-0.1-0.2-0.2-0.2c-0.1,0-0.1,0-0.2,0.1l-4.2,3.2
		c-0.1,0.1-0.1,0.2-0.1,0.3c0,0,0,0,0.1,0.1l4.2,3.2c0.1,0.1,0.2,0.1,0.3,0c0,0,0.1-0.1,0.1-0.2v-1.5h4.5c0.1,0,0.2-0.1,0.2-0.2
		v-2.8C1323.1,698.9,1323,698.8,1322.9,698.8C1322.9,698.8,1322.9,698.8,1322.9,698.8z"/>
	<path id="Path_54518" class="st0" d="M1292.9,698.8h4.5v-1.5c0-0.1,0.1-0.2,0.2-0.2c0.1,0,0.1,0,0.2,0.1l4.2,3.2
		c0.1,0.1,0.1,0.2,0.1,0.3c0,0,0,0-0.1,0.1l-4.2,3.2c-0.1,0.1-0.2,0.1-0.3,0c0,0-0.1-0.1-0.1-0.2v-1.5h-4.5c-0.1,0-0.2-0.1-0.2-0.2
		v-2.8C1292.7,698.9,1292.8,698.8,1292.9,698.8C1292.9,698.8,1292.9,698.8,1292.9,698.8z"/>
	<path id="Rectangle_8920" class="st0" d="M1287.1,677.7h40.7c2,0,3.6,1.6,3.6,3.6v38.2c0,2-1.6,3.6-3.6,3.6h-40.7
		c-2,0-3.6-1.6-3.6-3.6v-38.2C1283.5,679.4,1285.1,677.7,1287.1,677.7z"/>
	<path id="Rectangle_8921" class="st0" d="M1288.7,681.2h37.5c1,0,1.8,0.8,1.8,1.8v35c0,1-0.8,1.8-1.8,1.8h-37.5
		c-1,0-1.8-0.8-1.8-1.8v-35C1286.9,682,1287.7,681.2,1288.7,681.2z"/>
	<rect id="Rectangle_8922" x="1306.2" y="681.2" class="st0" width="2.6" height="38.6"/>
</g>
</svg>
