<svg xmlns="http://www.w3.org/2000/svg" xmlns:xlink="http://www.w3.org/1999/xlink" x="0px" y="0px"
	 viewBox="0 0 50 50" style="enable-background:new 0 0 50 50;" xml:space="preserve">
<style type="text/css">
	.st0{fill:none;stroke:currentcolor;stroke-linecap:round;stroke-linejoin:round;}
</style>
<g id="Group_25148" transform="translate(-1248.454 -689.454)">
	<path id="Path_54519" class="st0" d="M1268.4,731h-4.9l-1-5.6c-0.1-0.6,0.3-1.1,0.8-1.2c0.1,0,0.1,0,0.2,0h4.9c0.6,0,1,0.5,1,1
		c0,0.1,0,0.1,0,0.2L1268.4,731z"/>
	<path id="Path_54520" class="st0" d="M1265.7,724.1c-1,0.6-4.2-1.4-5.4-2.6c-1.2-1.2-1.5-2.9-0.7-3.7c0.8-0.8,2.5-0.5,3.7,0.7
		c0.3,0.3,0.6,0.7,0.9,1.1"/>
	<path id="Path_54521" class="st0" d="M1267.7,719.7c0.3-0.4,0.6-0.7,0.9-1.1c1.2-1.2,2.9-1.5,3.7-0.7c0.8,0.8,0.5,2.5-0.7,3.7
		c-1.2,1.2-4.4,3.2-5.4,2.6"/>
	<path id="Path_54522" class="st0" d="M1268,716.6c0,2.3-0.9,7.6-2.1,7.6s-2.1-5.3-2.1-7.6s0.9-4.2,2.1-4.2S1268,714.3,1268,716.6z"
		/>
	<path id="Rectangle_8923" class="st0" d="M1251,731h44.8c0.9,0,1.6,0.7,1.6,1.6l0,0l0,0c0,0.9-0.7,1.6-1.6,1.6l0,0H1251
		c-0.9,0-1.6-0.7-1.6-1.6l0,0C1249.5,731.8,1250.2,731,1251,731C1251,731,1251,731,1251,731z"/>
	<path id="Path_54523" class="st0" d="M1254.2,731h38.4v-34.8c0-0.9-0.7-1.6-1.6-1.6l0,0h-35.2c-0.9,0-1.6,0.7-1.6,1.6c0,0,0,0,0,0
		V731"/>
	<path id="Path_54524" class="st0" d="M1268.9,728.3h21v-30.4c0-0.3-0.2-0.5-0.5-0.5h-32c-0.3,0-0.5,0.2-0.5,0.5v30.4"/>
	<line id="Line_330" class="st0" x1="1257" y1="728.3" x2="1263" y2="728.3"/>
	<path id="Path_54525" class="st0" d="M1257,708c3.9-0.7,7.8,0,11.3,1.9c2.4,1.4,4.5,3.1,6.3,5.1c2.9,3.3,7.6,5.8,15.4,4.3"/>
	<path id="Path_54526" class="st0" d="M1273.5,714c0,0,10-5,16.4,0.7"/>
	<path id="Path_54527" class="st0" d="M1280.5,703.8c0,1.8-1.4,3.2-3.2,3.2c-1.8,0-3.2-1.4-3.2-3.2s1.4-3.2,3.2-3.2
		C1279.1,700.6,1280.5,702,1280.5,703.8L1280.5,703.8z"/>
</g>
</svg>
