<svg xmlns="http://www.w3.org/2000/svg" xmlns:xlink="http://www.w3.org/1999/xlink" x="0px" y="0px"
	 viewBox="0 0 50 50" style="enable-background:new 0 0 50 50;" xml:space="preserve">
<style type="text/css">
	.st0{fill:none;stroke:currentcolor;stroke-linecap:round;stroke-linejoin:round;}
</style>
<g id="Group_25149" transform="translate(-1248.716 -711.716)">
	<line id="Line_331" class="st0" x1="1249.7" y1="719.1" x2="1258.6" y2="719.1"/>
	<line id="Line_332" class="st0" x1="1254.2" y1="719.1" x2="1254.2" y2="721.9"/>
	<path id="Path_54528" class="st0" d="M1255.8,716.3h-3.4l-1.8,2.8h6.9L1255.8,716.3z"/>
	<line id="Line_333" class="st0" x1="1254.2" y1="716.3" x2="1254.2" y2="714.6"/>
	<path id="Path_54529" class="st0" d="M1256.6,724.1h-5l-0.6-5h6.1L1256.6,724.1z"/>
	<path id="Path_54530" class="st0" d="M1251.7,724.1l2.5,2.5l2.5-2.5"/>
	<line id="Line_334" class="st0" x1="1288.8" y1="719.1" x2="1297.6" y2="719.1"/>
	<line id="Line_335" class="st0" x1="1293.2" y1="719.1" x2="1293.2" y2="721.9"/>
	<path id="Path_54531" class="st0" d="M1294.9,716.3h-3.4l-1.8,2.8h6.9L1294.9,716.3z"/>
	<line id="Line_336" class="st0" x1="1293.2" y1="716.3" x2="1293.2" y2="714.6"/>
	<path id="Path_54532" class="st0" d="M1295.7,724.1h-5l-0.6-5h6.1L1295.7,724.1z"/>
	<path id="Path_54533" class="st0" d="M1290.7,724.1l2.5,2.5l2.5-2.5"/>
	<path id="Path_54534" class="st0" d="M1283.3,717.3H1264c-0.5,0-0.9,0.4-0.9,0.9l0,0v40.7h21.2v-40.7
		C1284.3,717.7,1283.9,717.3,1283.3,717.3z"/>
	<circle id="Ellipse_200" class="st0" cx="1267.3" cy="739.4" r="1.5"/>
	<path id="Rectangle_8928" class="st0" d="M1269.4,720.6h8.6c2,0,3.6,1.6,3.6,3.6l0,0c0,2-1.6,3.6-3.6,3.6h-8.6
		c-2,0-3.6-1.6-3.6-3.6l0,0C1265.8,722.3,1267.4,720.6,1269.4,720.6z"/>
	<line id="Line_337" class="st0" x1="1276.4" y1="727.9" x2="1276.4" y2="720.6"/>
	<line id="Line_338" class="st0" x1="1271" y1="727.9" x2="1271" y2="720.6"/>
	<line id="Line_339" class="st0" x1="1260.9" y1="758.9" x2="1263.1" y2="758.9"/>
	<path id="Path_54535" class="st0" d="M1286.9,739.4v-23c0-1-0.8-1.8-1.8-1.8h-22.9c-1,0-1.8,0.8-1.8,1.8c0,0,0,0,0,0v22.9"/>
	<line id="Line_340" class="st0" x1="1284.3" y1="758.9" x2="1286.4" y2="758.9"/>
	<path id="Path_54536" class="st0" d="M1259,758.9h-6.6c-0.3,0-0.5-0.2-0.6-0.5l-1.2-7.2c-0.1-0.3,0.2-0.6,0.5-0.6c0,0,0.1,0,0.1,0
		h9c0.3,0,0.6,0.3,0.6,0.6c0,0,0,0.1,0,0.1l-1.2,7.2C1259.5,758.7,1259.3,758.9,1259,758.9z"/>
	<path id="Path_54537" class="st0" d="M1257.9,750.6c1.6,0,2.9-1.3,2.9-2.8c0-0.8-0.4-1.6-1.1-2.2c0.9-0.4,1.4-1.3,1.4-2.2
		c0-1.4-1.2-2.5-2.6-2.5c-0.1,0-0.2,0-0.2,0c0-0.2,0-0.3,0-0.5c0-1.6-1.4-2.9-3-2.9c-1.6,0-2.9,1.3-3,2.9c0,0.2,0,0.4,0.1,0.6h-0.1
		c-1.5,0-2.7,1.1-2.7,2.6c0,0,0,0,0,0c0,1,0.6,1.9,1.6,2.4c-0.4,0.5-0.6,1.1-0.6,1.8c0,1.3,0.9,2.5,2.1,2.8"/>
	<path id="Path_54538" class="st0" d="M1253.2,743.1c0-0.8,0.6-1.4,1.4-1.4"/>
	<path id="Path_54539" class="st0" d="M1257.1,744.4c0.7,0.6,0.8,1.6,0.2,2.3"/>
	<path id="Path_54540" class="st0" d="M1288.4,758.9h6.6c0.3,0,0.5-0.2,0.6-0.5l1.2-7.2c0.1-0.3-0.2-0.6-0.5-0.6c0,0-0.1,0-0.1,0h-9
		c-0.3,0-0.6,0.3-0.6,0.6c0,0,0,0.1,0,0.1l1.2,7.2C1287.9,758.7,1288.1,758.9,1288.4,758.9z"/>
	<path id="Path_54541" class="st0" d="M1294.6,750.6c1.3-0.4,2.1-1.5,2.1-2.8c0-0.7-0.2-1.3-0.6-1.8c0.9-0.4,1.5-1.3,1.6-2.4
		c0-1.5-1.2-2.6-2.7-2.6c0,0,0,0,0,0h-0.1c0-0.2,0.1-0.4,0.1-0.6c-0.1-1.6-1.4-2.9-3.1-2.9c-1.6,0.1-2.8,1.3-2.9,2.9
		c0,0.2,0,0.3,0,0.5c-0.1,0-0.2,0-0.2,0c-1.4,0-2.6,1.1-2.6,2.5c0,0.9,0.5,1.8,1.4,2.2c-0.7,0.5-1.1,1.3-1.1,2.2
		c0,1.6,1.3,2.8,2.9,2.8"/>
	<path id="Path_54542" class="st0" d="M1294,743.1c0-0.8-0.6-1.4-1.4-1.4"/>
	<path id="Path_54543" class="st0" d="M1290.1,744.4c-0.7,0.6-0.8,1.6-0.2,2.3"/>
</g>
</svg>
